<svg width="300" height="180"><path d="m106.4 68.92h-1.718v-8.911c0-0.7938 0.026-1.968 0.0781-3.523-0.2538 0.2798-0.6474 0.6474-1.181 1.103l-1.435 1.181-0.9467-1.2 3.738-2.918h1.464v14.27"/><g tra\
nsform="rotate(165.5)"><path d="m-83.67-114.1h-1.718v-8.911c-0.000006-0.7938 0.02602-1.968 0.07808-3.523-0.2538 0.2798-0.6474 0.6474-1.181 1.103l-1.435 1.181-0.9467-1.2 3.738-2.918h1.464v14.27"/><\
/g><g transform="rotate(-23.51)"><path d="m63.17 105.2h-1.718v-8.911c-0.000006-0.7938 0.02602-1.968 0.07808-3.523-0.2538 0.2798-0.6474 0.6474-1.181 1.103l-1.435 1.181-0.9467-1.2 3.738-2.918h1.464v\
14.27"/></g><g transform="rotate(233.6)"><path d="m-126.7 27.24h-1.718v-8.911c0-0.7938 0.026-1.968 0.0781-3.523-0.2538 0.2798-0.6474 0.6474-1.181 1.103l-1.435 1.181-0.9467-1.2 3.738-2.918h1.464v14\
.27"/></g><g transform="rotate(-71.75)"><path d="m-41.44 113h-1.718v-8.911c-0.000005-0.7938 0.02602-1.968 0.07808-3.523-0.2538 0.2798-0.6474 0.6474-1.181 1.103l-1.435 1.181-0.9467-1.2 3.738-2.918h\
1.464v14.27"/></g><g transform="rotate(254.6)"><path d="m-101.8 68.7h-1.718v-8.911c-0.00001-0.7938 0.026-1.968 0.0781-3.523-0.2538 0.2798-0.6474 0.6474-1.181 1.103l-1.435 1.181-0.9467-1.2 3.738-2.\
918h1.464v14.27"/></g><g transform="rotate(131.6)"><path d="m-10.77-142.4h-1.718v-8.911c-0.000006-0.7938 0.02602-1.968 0.07808-3.523-0.2538 0.2798-0.6474 0.6474-1.181 1.103l-1.435 1.181-0.9467-1.2\
 3.738-2.918h1.464v14.27"/></g><g transform="rotate(51.94)"><path d="m122.5-67.26h-1.718v-8.911c-0.00001-0.7938 0.026-1.968 0.0781-3.523-0.2538 0.2798-0.6474 0.6474-1.181 1.103l-1.435 1.181-0.9467\
-1.2 3.738-2.918h1.464v14.27"/></g><g transform="rotate(88.1)"><path d="m86.24-144.5h-1.718v-8.911c-0.000005-0.7938 0.02602-1.968 0.07808-3.523-0.2538 0.2798-0.6474 0.6474-1.181 1.103l-1.435 1.181\
-0.9467-1.2 3.738-2.918h1.464v14.27"/></g><g transform="rotate(55.8)"><path d="m141.5-115.3h-1.718v-8.911c-0.00001-0.7938 0.026-1.968 0.0781-3.523-0.2538 0.2798-0.6474 0.6474-1.181 1.103l-1.435 1.\
181-0.9467-1.2 3.738-2.918h1.464v14.27"/></g><g transform="rotate(65.78)"><path d="m106.6-165.8h-1.718v-8.911c-0.00001-0.7938 0.026-1.968 0.0781-3.523-0.2538 0.2798-0.6474 0.6474-1.181 1.103l-1.43\
5 1.181-0.9467-1.2 3.738-2.918h1.464v14.27"/></g><g transform="rotate(103.7)"><path d="m21.37-224.2h-1.718v-8.911c-0.000006-0.7938 0.02602-1.968 0.07808-3.523-0.2538 0.2798-0.6474 0.6474-1.181 1.1\
03l-1.435 1.181-0.9467-1.2 3.738-2.918h1.464v14.27"/></g><g transform="rotate(74.91)"><path d="m109.5-224.8h-1.718v-8.911c-0.00001-0.7938 0.026-1.968 0.0781-3.523-0.2538 0.2798-0.6474 0.6474-1.181\
 1.103l-1.435 1.181-0.9467-1.2 3.738-2.918h1.464v14.27"/></g><g transform="matrix(-.7254 -.2967 -.4830 1.181 0 0)"><path d="m-165.4 43.09c-0.9741 0-1.712-0.4105-2.214-1.231-0.5019-0.8252-0.7529-2.\
016-0.7529-3.573 0-3.199 0.989-4.798 2.967-4.798 0.9868 0.00001 1.731 0.4126 2.233 1.238 0.5062 0.821 0.7593 2.008 0.7593 3.56-0.00001 3.203-0.9975 4.804-2.992 4.804m0-0.989c0.6253 0.000001 1.085-\
0.2978 1.378-0.8933 0.2935-0.5998 0.4402-1.574 0.4402-2.922-0.00001-1.34-0.1468-2.308-0.4402-2.903-0.2935-0.5998-0.7529-0.8996-1.378-0.8996-0.6168 0.000008-1.07 0.2978-1.359 0.8933-0.285 0.5913-0.\
4275 1.561-0.4275 2.91 0 1.353 0.1425 2.327 0.4275 2.922 0.2892 0.5955 0.7422 0.8933 1.359 0.8933"/></g><g transform="matrix(-.7582 -.1986 -.3232 1.234 0 0)"><path d="m-151.5 77.36c-0.9741 0-1.712\
-0.4105-2.214-1.231-0.5019-0.8252-0.7529-2.016-0.7529-3.573 0-3.199 0.989-4.798 2.967-4.798 0.9868 0.000009 1.731 0.4126 2.233 1.238 0.5062 0.821 0.7593 2.008 0.7593 3.56-0.00001 3.203-0.9975 4.80\
4-2.992 4.804m0-0.989c0.6253 0 1.085-0.2978 1.378-0.8933 0.2935-0.5998 0.4402-1.574 0.4402-2.922-0.00001-1.34-0.1468-2.308-0.4402-2.903-0.2935-0.5998-0.7529-0.8996-1.378-0.8996-0.6168 0.000008-1.0\
7 0.2978-1.359 0.8933-0.285 0.5913-0.4275 1.561-0.4275 2.91 0 1.353 0.1425 2.327 0.4275 2.922 0.2892 0.5955 0.7422 0.8933 1.359 0.8933"/></g><g transform="matrix(-.7675 -.1589 -.2587 1.249 0 0)"><\
path d="m-143.4 102.9c-0.9741 0-1.712-0.4105-2.214-1.231-0.5019-0.8252-0.7529-2.016-0.7529-3.573 0-3.199 0.989-4.798 2.967-4.798 0.9868 0.00001 1.731 0.4126 2.233 1.238 0.5062 0.821 0.7593 2.008 0\
.7593 3.56-0.00001 3.203-0.9975 4.804-2.992 4.804m0-0.989c0.6253 0 1.085-0.2978 1.378-0.8933 0.2935-0.5998 0.4402-1.574 0.4402-2.922-0.00001-1.34-0.1468-2.308-0.4402-2.903-0.2935-0.5998-0.7529-0.8\
996-1.378-0.8996-0.6168 0.000008-1.07 0.2978-1.359 0.8933-0.285 0.5913-0.4275 1.561-0.4275 2.91-0.00001 1.353 0.1425 2.327 0.4275 2.922 0.2892 0.5955 0.7422 0.8933 1.359 0.8933"/></g><g transform=\
"matrix(-.7776 -.09801 -.1596 1.266 0 0)"><path d="m-128.4 130.7c-0.9741 0-1.712-0.4105-2.214-1.231-0.5019-0.8252-0.7529-2.016-0.7529-3.573 0-3.199 0.989-4.798 2.967-4.798 0.9868 0.00001 1.731 0.4\
126 2.233 1.238 0.5062 0.821 0.7593 2.008 0.7593 3.56-0.00001 3.203-0.9975 4.804-2.992 4.804m0-0.989c0.6253 0 1.085-0.2978 1.378-0.8933 0.2935-0.5998 0.4402-1.574 0.4402-2.922-0.00001-1.34-0.1468-\
2.308-0.4402-2.903-0.2935-0.5998-0.7529-0.8996-1.378-0.8996-0.6168 0.00001-1.07 0.2978-1.359 0.8933-0.285 0.5913-0.4275 1.561-0.4275 2.91 0 1.353 0.1425 2.327 0.4275 2.922 0.2892 0.5955 0.7422 0.8\
933 1.359 0.8933"/></g><g transform="matrix(1.222 .1981 -.3157 .7669 0 0)"><path d="m108.4 118.4h-1.48v-7.679c0-0.6841 0.0224-1.696 0.0673-3.036-0.2187 0.2411-0.5579 0.5579-1.018 0.9504l-1.236 1.0\
18-0.8159-1.035 3.221-2.515h1.262v12.3"/></g><g transform="matrix(1.238 -.02590 -.1721 .8113 0 0)"><path d="m95.07 172.2h-1.48v-7.679c-0.000005-0.6841 0.02242-1.696 0.06729-3.036-0.2187 0.2411-0.5\
579 0.5579-1.018 0.9504l-1.236 1.018-0.8159-1.035 3.221-2.515h1.262v12.3"/></g><g transform="matrix(1.238 -.001471 -.1880 .8077 0 0)"><path d="m97.01 203.2h-1.48v-7.679c-0.000005-0.6841 0.02242-1.\
696 0.06729-3.036-0.2187 0.2411-0.5579 0.5579-1.018 0.9504l-1.236 1.018-0.8159-1.035 3.221-2.515h1.262v12.3"/></g><g transform="matrix(-1.236 .04170 -.03046 .8101 0 0)"><path d="m-87.84 107.6c-1.0\
4 0-1.827-0.438-2.363-1.314-0.5356-0.8806-0.8035-2.152-0.8035-3.813-0.000001-3.414 1.055-5.12 3.166-5.12 1.053 0.00001 1.848 0.4403 2.383 1.321 0.5402 0.8761 0.8103 2.143 0.8103 3.8-0.000008 3.418\
-1.064 5.127-3.194 5.127m0-1.055c0.6673 0.00001 1.158-0.3178 1.471-0.9533 0.3132-0.64 0.4698-1.68 0.4698-3.119-0.000006-1.43-0.1566-2.463-0.4698-3.098-0.3132-0.64-0.8035-0.9601-1.471-0.9601-0.6582\
 0.000009-1.142 0.3178-1.45 0.9533-0.3041 0.631-0.4562 1.666-0.4562 3.105-0.000003 1.444 0.1521 2.483 0.4562 3.119 0.3087 0.6355 0.7921 0.9533 1.45 0.9533"/></g><g transform="scale(1.355 .7382)"><\
path d="m77.81 118.1c-2.224 0-3.908-0.937-5.054-2.811-1.146-1.884-1.719-4.602-1.719-8.156-0.000002-7.302 2.258-10.95 6.772-10.95 2.253 0.000021 3.952 0.9418 5.098 2.826 1.155 1.874 1.733 4.583 1.7\
33 8.127-0.000016 7.311-2.277 10.97-6.831 10.97m0-2.258c1.427 0 2.476-0.6797 3.146-2.039 0.6699-1.369 1.005-3.592 1.005-6.67-0.000013-3.058-0.335-5.267-1.005-6.627-0.67-1.369-1.719-2.054-3.146-2.0\
54-1.408 0.00002-2.442 0.6797-3.102 2.039-0.6505 1.35-0.9758 3.563-0.9758 6.641-0.000005 3.088 0.3253 5.311 0.9758 6.67 0.6602 1.359 1.694 2.039 3.102 2.039"/></g></svg>
