<?xml version="1.0" encoding="UTF-8" standalone="no"?>
<svg xmlns="http://www.w3.org/2000/svg">
	<path d="m 106.4,68.92 h -1.718 v -8.911 c 0,-0.7938 0.026,-1.968 0.0781,-3.523 -0.2538,0.2798 -0.6474,0.6474 -1.181,1.103 l -1.435,1.181 -0.9467,-1.2 3.738,-2.918 h 1.464 v 14.27" />
<g transform="matrix(0.91699047,-0.39890912,0.39890912,0.91699047,0,0)">
	<path d="m 63.17,105.2 h -1.718 v -8.911 c -6e-6,-0.7938 0.02602,-1.968 0.07808,-3.523 -0.2538,0.2798 -0.6474,0.6474 -1.181,1.103 l -1.435,1.181 -0.9467,-1.2 3.738,-2.918 h 1.464" />
</g>
<g transform="matrix(-0.59341889,-0.8048938,0.8048938,-0.59341889,0,0)">
	<path d="m -126.7,27.24 h -1.718 v -8.911 c 0,-0.7938 0.026,-1.968 0.0781,-3.523 -0.2538,0.2798 -0.6474,0.6474 -1.181,1.103 l -1.435,1.181 -0.9467,-1.2 3.738,-2.918 h 1.464" />
</g>
<g transform="matrix(0.31316381,-0.94969913,0.94969913,0.31316381,0,0)">
	<path d="m -41.44,113 h -1.718 v -8.911 c -5e-6,-0.7938 0.02602,-1.968 0.07808,-3.523 -0.2538,0.2798 -0.6474,0.6474 -1.181,1.103 l -1.435,1.181 -0.9467,-1.2 3.738,-2.918" />
</g>
<g transform="matrix(-0.26555612,-0.9640954,0.9640954,-0.26555612,0,0)">
	<path d="m -101.8,68.7 h -1.718 v -8.911 c -1e-5,-0.7938 0.026,-1.968 0.0781,-3.523 -0.2538,0.2798 -0.6474,0.6474 -1.181,1.103 l -1.435,1.181 -0.9467,-1.2" />
</g>
<g transform="matrix(-0.66392621,0.74779809,-0.74779809,-0.66392621,0,0)">
	<path d="m -10.77,-142.4 h -1.718 v -8.911 c -6e-6,-0.7938 0.02602,-1.968 0.07808,-3.523 -0.2538,0.2798 -0.6474,0.6474 -1.181,1.103 l -1.435,1.181" />
</g>
<g transform="matrix(0.61648634,0.7873656,-0.7873656,0.61648634,0,0)">
	<path d="m 122.5,-67.26 h -1.718 v -8.911 c -1e-5,-0.7938 0.026,-1.968 0.0781,-3.523 -0.2538,0.2798 -0.6474,0.6474 -1.181,1.103 l -1.435,1.181" />
</g>
<g transform="matrix(0.03315518,0.99945022,-0.99945022,0.03315518,0,0)">
	<path d="m 86.24,-144.5 h -1.718 v -8.911 c -5e-6,-0.7938 0.02602,-1.968 0.07808,-3.523 -0.2538,0.2798 -0.6474,0.6474 -1.181,1.103" />
</g>
<g transform="matrix(0.56208338,0.82708057,-0.82708057,0.56208338,0,0)">
	<path d="m 141.5,-115.3 h -1.718 v -8.911 c -1e-5,-0.7938 0.026,-1.968 0.0781,-3.523 -0.2538,0.2798 -0.6474,0.6474 -1.181,1.103" />
</g>
<g transform="matrix(0.4102414,0.91197697,-0.91197697,0.4102414,0,0)">
	<path d="m 106.6,-165.8 h -1.718 v -8.911 c -1e-5,-0.7938 0.026,-1.968 0.0781,-3.523 -0.2538,0.2798 -0.6474,0.6474 -1.181,1.103" />
</g>
<g transform="matrix(-0.23683815,0.97154912,-0.97154912,-0.23683815,0,0)">
	<path d="m 21.37,-224.2 h -1.718 v -8.911 c -6e-6,-0.7938 0.02602,-1.968 0.07808,-3.523" />
</g>
<g transform="matrix(0.260336,0.96551808,-0.96551808,0.260336,0,0)">
	<path d="m 109.5,-224.8 h -1.718 v -8.911 c -1e-5,-0.7938 0.026,-1.968 0.0781,-3.523" />
</g>
<g transform="matrix(-0.7254,-0.2967,-0.483,1.181,0,0)">
	<path d="m -165.4,43.09 c -0.9741,0 -1.712,-0.4105 -2.214,-1.231" />
</g>
<g transform="matrix(-0.7582,-0.1986,-0.3232,1.234,0,0)">
	<path d="M -151.5,77.36" />
</g>
<g transform="matrix(-0.7675,-0.1589,-0.2587,1.249,0,0)">
	<path d="m -143.4,102.9 c -0.9741,0 -1.712,-0.4105 -2.214,-1.231 -0.5019,-0.8252 -0.7529,-2.016 -0.7529,-3.573 0,-3.199 0.989,-4.798 2.967,-4.798 0.9868,1e-5 1.731,0.4126 2.233,1.238" />
</g>
<g transform="matrix(-0.7776,-0.09801,-0.1596,1.266,0,0)">
	<path d="m -128.4,130.7 c -0.9741,0 -1.712,-0.4105 -2.214,-1.231 -0.5019,-0.8252 -0.7529,-2.016 -0.7529,-3.573 0,-3.199 0.989,-4.798 2.967,-4.798" />
</g>
<g transform="matrix(1.222,0.1981,-0.3157,0.7669,0,0)">
	<path d="m 108.4,118.4 h -1.48 v -7.679 c 0,-0.6841 0.0224,-1.696 0.0673,-3.036 -0.2187,0.2411 -0.5579,0.5579 -1.018,0.9504" />
</g>
<g transform="matrix(1.238,-0.0259,-0.1721,0.8113,0,0)">
	<path d="m 95.07,172.2 h -1.48 v -7.679 c -5e-6,-0.6841 0.02242,-1.696 0.06729,-3.036" />
</g>
<g transform="matrix(1.238,-0.001471,-0.188,0.8077,0,0)">
	<path d="m 97.01,203.2 h -1.48 v -7.679" />
</g>
<g transform="matrix(-1.236,0.0417,-0.03046,0.8101,0,0)">
	<path d="M -87.84,107.6" />
</g>
<g transform="scale(1.355,0.7382)">
	<path d="m 77.81,118.1 c -2.224,0 -3.908,-0.937 -5.054,-2.811 -1.146,-1.884 -1.719,-4.602 -1.719,-8.156 -2e-6,-7.302 2.258,-10.95 6.772,-10.95 2.253,2.1e-5 3.952,0.9418 5.098,2.826" />
</g>
</svg>
