<?xml version="1.0" encoding="UTF-8" standalone="no"?>
<!-- Created with Inkscape (http://www.inkscape.org/) -->

<svg
   xmlns:dc="http://purl.org/dc/elements/1.1/"
   xmlns:cc="http://creativecommons.org/ns#"
   xmlns:rdf="http://www.w3.org/1999/02/22-rdf-syntax-ns#"
   xmlns:svg="http://www.w3.org/2000/svg"
   xmlns="http://www.w3.org/2000/svg"
   version="1.1"
   width="300"
   height="180"
   id="svg2">
  <defs
     id="defs4" />
  <metadata
     id="metadata7">
    <rdf:RDF>
      <cc:Work
         rdf:about="">
        <dc:format>image/svg+xml</dc:format>
        <dc:type
           rdf:resource="http://purl.org/dc/dcmitype/StillImage" />
        <dc:title></dc:title>
      </cc:Work>
    </rdf:RDF>
  </metadata>
  <g
     id="layer5">
    <g
       id="text2990-7"
       style="font-size:19.98827362px;font-style:normal;font-variant:normal;font-weight:normal;font-stretch:normal;line-height:125%;letter-spacing:0px;word-spacing:0px;fill:#000000;fill-opacity:1;stroke:none;font-family:Droid Sans Mono;-inkscape-font-specification:Droid Sans Mono">
      <path
         d="m 106.42552,68.920204 -1.71775,0 0,-8.910788 c 0,-0.793795 0.026,-1.968235 0.0781,-3.523323 -0.25376,0.279795 -0.64741,0.647418 -1.18095,1.102868 l -1.4347,1.180948 -0.94671,-1.200468 3.73804,-2.91821 1.46399,0 0,14.268973"
         id="path3056" />
    </g>
    <g
       transform="matrix(-0.96800707,0.25092291,-0.25092291,-0.96800707,0,0)"
       id="text2990-7-4"
       style="font-size:19.98827362px;font-style:normal;font-variant:normal;font-weight:normal;font-stretch:normal;line-height:125%;letter-spacing:0px;word-spacing:0px;fill:#000000;fill-opacity:1;stroke:none;font-family:Droid Sans Mono;-inkscape-font-specification:Droid Sans Mono">
      <path
         d="m -83.665748,-114.1049 -1.717742,0 0,-8.91078 c -6e-6,-0.7938 0.02602,-1.96824 0.07808,-3.52333 -0.253763,0.2798 -0.647411,0.64742 -1.180947,1.10287 l -1.434706,1.18095 -0.94671,-1.20047 3.738042,-2.91821 1.463984,0 0,14.26897"
         id="path3059" />
    </g>
    <g
       transform="matrix(0.91697723,-0.39893955,0.39893955,0.91697723,0,0)"
       id="text2990-7-9"
       style="font-size:19.98827362px;font-style:normal;font-variant:normal;font-weight:normal;font-stretch:normal;line-height:125%;letter-spacing:0px;word-spacing:0px;fill:#000000;fill-opacity:1;stroke:none;font-family:Droid Sans Mono;-inkscape-font-specification:Droid Sans Mono">
      <path
         d="m 63.170327,105.14977 -1.717742,0 0,-8.910785 c -6e-6,-0.793796 0.02602,-1.968236 0.07808,-3.523324 -0.253763,0.279796 -0.647412,0.647418 -1.180948,1.102869 l -1.434705,1.180947 -0.94671,-1.200467 3.738041,-2.91821 1.463985,0 0,14.26897"
         id="path3062" />
    </g>
    <g
       transform="matrix(-0.59314555,-0.80509524,0.80509524,-0.59314555,0,0)"
       id="text2990-7-5"
       style="font-size:19.98827362px;font-style:normal;font-variant:normal;font-weight:normal;font-stretch:normal;line-height:125%;letter-spacing:0px;word-spacing:0px;fill:#000000;fill-opacity:1;stroke:none;font-family:Droid Sans Mono;-inkscape-font-specification:Droid Sans Mono">
      <path
         d="m -126.66057,27.239197 -1.71775,0 0,-8.910788 c 0,-0.793796 0.026,-1.968236 0.0781,-3.523324 -0.25376,0.279796 -0.64741,0.647419 -1.18095,1.102869 l -1.4347,1.180948 -0.94671,-1.200468 3.73804,-2.91821 1.46399,0 0,14.268973"
         id="path3065" />
    </g>
    <g
       transform="matrix(0.31319215,-0.94968978,0.94968978,0.31319215,0,0)"
       id="text2990-7-81"
       style="font-size:19.98827362px;font-style:normal;font-variant:normal;font-weight:normal;font-stretch:normal;line-height:125%;letter-spacing:0px;word-spacing:0px;fill:#000000;fill-opacity:1;stroke:none;font-family:Droid Sans Mono;-inkscape-font-specification:Droid Sans Mono">
      <path
         d="m -41.445109,113.0434 -1.717743,0 0,-8.91078 c -5e-6,-0.7938 0.02602,-1.96824 0.07808,-3.52333 -0.253763,0.2798 -0.647412,0.64742 -1.180948,1.10287 l -1.434705,1.18095 -0.946711,-1.20047 3.738042,-2.918209 1.463985,0 0,14.268969"
         id="path3068" />
    </g>
    <g
       transform="matrix(-0.26611424,-0.9639415,0.9639415,-0.26611424,0,0)"
       id="text2990-7-99"
       style="font-size:19.98827362px;font-style:normal;font-variant:normal;font-weight:normal;font-stretch:normal;line-height:125%;letter-spacing:0px;word-spacing:0px;fill:#000000;fill-opacity:1;stroke:none;font-family:Droid Sans Mono;-inkscape-font-specification:Droid Sans Mono">
      <path
         d="m -101.83545,68.705475 -1.71774,0 0,-8.910788 c -1e-5,-0.793796 0.026,-1.968236 0.0781,-3.523324 -0.25376,0.279796 -0.64741,0.647419 -1.18095,1.102869 l -1.4347,1.180948 -0.94671,-1.200468 3.73804,-2.91821 1.46398,0 0,14.268973"
         id="path3071" />
    </g>
    <g
       transform="matrix(-0.66389743,0.74782364,-0.74782364,-0.66389743,0,0)"
       id="text2990-7-0"
       style="font-size:19.98827362px;font-style:normal;font-variant:normal;font-weight:normal;font-stretch:normal;line-height:125%;letter-spacing:0px;word-spacing:0px;fill:#000000;fill-opacity:1;stroke:none;font-family:Droid Sans Mono;-inkscape-font-specification:Droid Sans Mono">
      <path
         d="m -10.770921,-142.41505 -1.717742,0 0,-8.91079 c -6e-6,-0.7938 0.02602,-1.96824 0.07808,-3.52333 -0.253763,0.2798 -0.647412,0.64742 -1.180948,1.10287 l -1.434705,1.18095 -0.94671,-1.20047 3.738041,-2.91821 1.463985,0 0,14.26898"
         id="path3074" />
    </g>
    <g
       transform="matrix(0.61642924,0.78741031,-0.78741031,0.61642924,0,0)"
       id="text2990-7-47"
       style="font-size:19.98827362px;font-style:normal;font-variant:normal;font-weight:normal;font-stretch:normal;line-height:125%;letter-spacing:0px;word-spacing:0px;fill:#000000;fill-opacity:1;stroke:none;font-family:Droid Sans Mono;-inkscape-font-specification:Droid Sans Mono">
      <path
         d="m 122.52353,-67.256531 -1.71774,0 0,-8.910788 c -1e-5,-0.793795 0.026,-1.968235 0.0781,-3.523323 -0.25377,0.279796 -0.64741,0.647418 -1.18095,1.102868 l -1.43471,1.180948 -0.94671,-1.200468 3.73805,-2.918209 1.46398,0 0,14.268972"
         id="path3077" />
    </g>
    <g
       transform="matrix(0.03313105,0.99945102,-0.99945102,0.03313105,0,0)"
       id="text2990-7-50"
       style="font-size:19.98827362px;font-style:normal;font-variant:normal;font-weight:normal;font-stretch:normal;line-height:125%;letter-spacing:0px;word-spacing:0px;fill:#000000;fill-opacity:1;stroke:none;font-family:Droid Sans Mono;-inkscape-font-specification:Droid Sans Mono">
      <path
         d="m 86.240953,-144.46338 -1.717743,0 0,-8.91079 c -5e-6,-0.79379 0.02602,-1.96823 0.07808,-3.52332 -0.253762,0.2798 -0.647411,0.64742 -1.180947,1.10287 l -1.434706,1.18095 -0.94671,-1.20047 3.738042,-2.91821 1.463985,0 0,14.26897"
         id="path3080" />
    </g>
    <g
       transform="matrix(0.56201745,0.82712538,-0.82712538,0.56201745,0,0)"
       id="text2990-7-6"
       style="font-size:19.98827362px;font-style:normal;font-variant:normal;font-weight:normal;font-stretch:normal;line-height:125%;letter-spacing:0px;word-spacing:0px;fill:#000000;fill-opacity:1;stroke:none;font-family:Droid Sans Mono;-inkscape-font-specification:Droid Sans Mono">
      <path
         d="m 141.46955,-115.26434 -1.71774,0 0,-8.91079 c -1e-5,-0.7938 0.026,-1.96824 0.0781,-3.52332 -0.25376,0.27979 -0.64741,0.64741 -1.18095,1.10286 l -1.4347,1.18095 -0.94671,-1.20047 3.73804,-2.91821 1.46398,0 0,14.26898"
         id="path3083" />
    </g>
    <g
       transform="matrix(0.41026184,0.91196777,-0.91196777,0.41026184,0,0)"
       id="text2990-7-68"
       style="font-size:19.98827362px;font-style:normal;font-variant:normal;font-weight:normal;font-stretch:normal;line-height:125%;letter-spacing:0px;word-spacing:0px;fill:#000000;fill-opacity:1;stroke:none;font-family:Droid Sans Mono;-inkscape-font-specification:Droid Sans Mono">
      <path
         d="m 106.62199,-165.76779 -1.71774,0 0,-8.91079 c -1e-5,-0.7938 0.026,-1.96824 0.0781,-3.52332 -0.25376,0.27979 -0.64741,0.64742 -1.18094,1.10287 l -1.43471,1.18094 -0.94671,-1.20046 3.73804,-2.91821 1.46399,0 0,14.26897"
         id="path3086" />
    </g>
    <g
       transform="matrix(-0.23609203,0.9717307,-0.9717307,-0.23609203,0,0)"
       id="text2990-7-07"
       style="font-size:19.98827362px;font-style:normal;font-variant:normal;font-weight:normal;font-stretch:normal;line-height:125%;letter-spacing:0px;word-spacing:0px;fill:#000000;fill-opacity:1;stroke:none;font-family:Droid Sans Mono;-inkscape-font-specification:Droid Sans Mono">
      <path
         d="m 21.373971,-224.19429 -1.717742,0 0,-8.91079 c -6e-6,-0.79379 0.02602,-1.96823 0.07808,-3.52332 -0.253763,0.27979 -0.647412,0.64742 -1.180948,1.10287 l -1.434705,1.18094 -0.94671,-1.20046 3.738041,-2.91821 1.463985,0 0,14.26897"
         id="path3089" />
    </g>
    <g
       transform="matrix(0.26029759,0.96552844,-0.96552844,0.26029759,0,0)"
       id="text2990-7-1"
       style="font-size:19.98827362px;font-style:normal;font-variant:normal;font-weight:normal;font-stretch:normal;line-height:125%;letter-spacing:0px;word-spacing:0px;fill:#000000;fill-opacity:1;stroke:none;font-family:Droid Sans Mono;-inkscape-font-specification:Droid Sans Mono">
      <path
         d="m 109.52001,-224.81616 -1.71774,0 0,-8.91079 c -10e-6,-0.7938 0.026,-1.96824 0.0781,-3.52332 -0.25376,0.27979 -0.64741,0.64741 -1.18095,1.10286 l -1.4347,1.18095 -0.94671,-1.20046 3.73804,-2.91821 1.46398,0 0,14.26897"
         id="path3092" />
    </g>
  </g>
  <g
     id="layer3">
    <g
       transform="matrix(-0.72542887,-0.29673984,-0.48305239,1.1809002,0,0)"
       id="text2985-0-36"
       style="font-size:13.06711483px;font-style:normal;font-weight:normal;line-height:125%;letter-spacing:0px;word-spacing:0px;fill:#000000;fill-opacity:1;stroke:none;font-family:Sans">
      <path
         d="m -165.36303,43.093833 c -0.97408,0 -1.71208,-0.410474 -2.21401,-1.231422 -0.50193,-0.8252 -0.75289,-2.016212 -0.75289,-3.573039 0,-3.198713 0.98896,-4.798072 2.9669,-4.798082 0.98683,1e-5 1.73122,0.41261 2.23315,1.237803 0.50617,0.820956 0.75926,2.007714 0.75927,3.560279 -1e-5,3.202975 -0.99748,4.804461 -2.99242,4.804461 m 0,-0.988966 c 0.62528,1e-6 1.08467,-0.297752 1.37817,-0.89326 0.29349,-0.599758 0.44024,-1.573835 0.44025,-2.922235 -1e-5,-1.339884 -0.14676,-2.307581 -0.44025,-2.903095 -0.2935,-0.599752 -0.75289,-0.899632 -1.37817,-0.89964 -0.61678,8e-6 -1.06979,0.297761 -1.35903,0.89326 -0.285,0.59126 -0.42749,1.561084 -0.42749,2.909475 0,1.352653 0.14249,2.326731 0.42749,2.922235 0.28924,0.595508 0.74225,0.893261 1.35903,0.89326"
         id="path3029"
         style="font-variant:normal;font-stretch:normal;font-family:Droid Sans Mono;-inkscape-font-specification:Droid Sans Mono" />
    </g>
    <g
       transform="matrix(-0.7582023,-0.19857197,-0.32324835,1.234251,0,0)"
       id="text2985-0-5-3"
       style="font-size:13.06711483px;font-style:normal;font-weight:normal;line-height:125%;letter-spacing:0px;word-spacing:0px;fill:#000000;fill-opacity:1;stroke:none;font-family:Sans">
      <path
         d="m -151.53292,77.359611 c -0.97408,0 -1.71209,-0.410474 -2.21401,-1.231423 -0.50193,-0.8252 -0.75289,-2.016212 -0.75289,-3.573039 0,-3.198713 0.98896,-4.798072 2.9669,-4.798081 0.98683,9e-6 1.73121,0.41261 2.23315,1.237803 0.50617,0.820956 0.75926,2.007714 0.75927,3.560278 -1e-5,3.202976 -0.99748,4.804462 -2.99242,4.804462 m 0,-0.988966 c 0.62527,0 1.08466,-0.297753 1.37817,-0.89326 0.29349,-0.599758 0.44024,-1.573836 0.44025,-2.922236 -1e-5,-1.339884 -0.14676,-2.307581 -0.44025,-2.903094 -0.29351,-0.599752 -0.7529,-0.899632 -1.37817,-0.89964 -0.61678,8e-6 -1.06979,0.297761 -1.35903,0.893259 -0.285,0.59126 -0.42749,1.561084 -0.42749,2.909475 0,1.352654 0.14249,2.326732 0.42749,2.922236 0.28924,0.595507 0.74225,0.89326 1.35903,0.89326"
         id="path3032"
         style="font-variant:normal;font-stretch:normal;font-family:Droid Sans Mono;-inkscape-font-specification:Droid Sans Mono" />
    </g>
    <g
       transform="matrix(-0.76749141,-0.15892919,-0.25871525,1.2493724,0,0)"
       id="text2985-0-5-3-4"
       style="font-size:13.06711483px;font-style:normal;font-weight:normal;line-height:125%;letter-spacing:0px;word-spacing:0px;fill:#000000;fill-opacity:1;stroke:none;font-family:Sans">
      <path
         d="m -143.35433,102.91132 c -0.97409,0 -1.71209,-0.41048 -2.21401,-1.23143 -0.50193,-0.8252 -0.75289,-2.016209 -0.75289,-3.573036 0,-3.198713 0.98896,-4.798072 2.9669,-4.798082 0.98683,10e-6 1.73121,0.41261 2.23315,1.237803 0.50617,0.820956 0.75926,2.007714 0.75927,3.560279 -1e-5,3.202976 -0.99748,4.804466 -2.99242,4.804466 m 0,-0.98897 c 0.62527,0 1.08466,-0.29775 1.37817,-0.89326 0.29349,-0.59976 0.44024,-1.573836 0.44025,-2.922236 -1e-5,-1.339884 -0.14676,-2.307581 -0.44025,-2.903095 -0.29351,-0.599752 -0.7529,-0.899632 -1.37817,-0.89964 -0.61678,8e-6 -1.06979,0.297761 -1.35903,0.89326 -0.285,0.59126 -0.4275,1.561084 -0.42749,2.909475 -1e-5,1.352653 0.14249,2.326736 0.42749,2.922236 0.28924,0.59551 0.74225,0.89326 1.35903,0.89326"
         id="path3035"
         style="font-variant:normal;font-stretch:normal;font-family:Droid Sans Mono;-inkscape-font-specification:Droid Sans Mono" />
    </g>
    <g
       transform="matrix(-0.77762174,-0.09801014,-0.15954727,1.2658632,0,0)"
       id="text2985-0-5-3-3"
       style="font-size:13.06711483px;font-style:normal;font-weight:normal;line-height:125%;letter-spacing:0px;word-spacing:0px;fill:#000000;fill-opacity:1;stroke:none;font-family:Sans">
      <path
         d="m -128.43879,130.7428 c -0.97408,0 -1.71208,-0.41048 -2.21401,-1.23143 -0.50193,-0.8252 -0.75289,-2.01621 -0.75289,-3.57303 0,-3.19872 0.98896,-4.79808 2.9669,-4.79809 0.98683,1e-5 1.73122,0.41261 2.23315,1.23781 0.50617,0.82095 0.75926,2.00771 0.75927,3.56028 -1e-5,3.20297 -0.99748,4.80446 -2.99242,4.80446 m 0,-0.98897 c 0.62528,0 1.08467,-0.29775 1.37817,-0.89326 0.2935,-0.59976 0.44024,-1.57383 0.44025,-2.92223 -1e-5,-1.33989 -0.14675,-2.30759 -0.44025,-2.9031 -0.2935,-0.59975 -0.75289,-0.89963 -1.37817,-0.89964 -0.61678,1e-5 -1.06979,0.29776 -1.35903,0.89326 -0.285,0.59126 -0.42749,1.56108 -0.42749,2.90948 0,1.35265 0.14249,2.32673 0.42749,2.92223 0.28924,0.59551 0.74225,0.89326 1.35903,0.89326"
         id="path3038"
         style="font-variant:normal;font-stretch:normal;font-family:Droid Sans Mono;-inkscape-font-specification:Droid Sans Mono" />
    </g>
    <g
       transform="matrix(1.2224283,0.19806604,-0.31571913,0.76688897,0,0)"
       id="text2990-7-14"
       style="font-size:17.2256794px;font-style:normal;font-variant:normal;font-weight:normal;font-stretch:normal;line-height:125%;letter-spacing:0px;word-spacing:0px;fill:#000000;fill-opacity:1;stroke:none;font-family:Droid Sans Mono;-inkscape-font-specification:Droid Sans Mono">
      <path
         d="m 108.4038,118.44056 -1.48033,0 0,-7.67922 c 0,-0.68409 0.0224,-1.69621 0.0673,-3.03636 -0.21869,0.24112 -0.55793,0.55793 -1.01773,0.95044 l -1.23641,1.01772 -0.81587,-1.03455 3.22141,-2.51488 1.26164,0 0,12.29685"
         id="path3041" />
    </g>
    <g
       transform="matrix(1.2380995,-0.02589828,-0.17206885,0.81128882,0,0)"
       id="text2990-7-14-7"
       style="font-size:17.2256794px;font-style:normal;font-variant:normal;font-weight:normal;font-stretch:normal;line-height:125%;letter-spacing:0px;word-spacing:0px;fill:#000000;fill-opacity:1;stroke:none;font-family:Droid Sans Mono;-inkscape-font-specification:Droid Sans Mono">
      <path
         d="m 95.070558,172.14899 -1.480332,0 0,-7.67922 c -5e-6,-0.68409 0.02242,-1.69621 0.06729,-3.03637 -0.21869,0.24113 -0.557933,0.55794 -1.017728,0.95044 l -1.236414,1.01773 -0.815864,-1.03455 3.221403,-2.51488 1.261647,0 0,12.29685"
         id="path3044" />
    </g>
    <g
       transform="matrix(1.2383695,-0.00147106,-0.18803848,0.80773681,0,0)"
       id="text2990-7-14-3"
       style="font-size:17.2256794px;font-style:normal;font-variant:normal;font-weight:normal;font-stretch:normal;line-height:125%;letter-spacing:0px;word-spacing:0px;fill:#000000;fill-opacity:1;stroke:none;font-family:Droid Sans Mono;-inkscape-font-specification:Droid Sans Mono">
      <path
         d="m 97.014077,203.21602 -1.480331,0 0,-7.67922 c -5e-6,-0.68409 0.02242,-1.69621 0.06729,-3.03637 -0.21869,0.24113 -0.557932,0.55794 -1.017728,0.95045 l -1.236413,1.01772 -0.815865,-1.03455 3.221404,-2.51488 1.261646,0 0,12.29685"
         id="path3047" />
    </g>
    <g
       transform="matrix(-1.2360182,0.04170273,-0.03045568,0.81007712,0,0)"
       id="text2985-0-5-3-7"
       style="font-size:13.94503117px;font-style:normal;font-weight:normal;line-height:125%;letter-spacing:0px;word-spacing:0px;fill:#000000;fill-opacity:1;stroke:none;font-family:Sans">
      <path
         d="m -87.840912,107.61557 c -1.039525,0 -1.82711,-0.43805 -2.362757,-1.31415 -0.53565,-0.88064 -0.803474,-2.15167 -0.803473,-3.8131 -10e-7,-3.413614 1.055408,-5.120426 3.16623,-5.120436 1.053135,1e-5 1.847529,0.440331 2.383184,1.320964 0.540181,0.876112 0.810275,2.142602 0.810283,3.799472 -8e-6,3.41817 -1.064496,5.12725 -3.193467,5.12725 m 0,-1.05541 c 0.667287,1e-5 1.157541,-0.31775 1.470765,-0.95327 0.313213,-0.64005 0.469822,-1.67957 0.469828,-3.11857 -6e-6,-1.4299 -0.156615,-2.46261 -0.469828,-3.098135 -0.313224,-0.640046 -0.803478,-0.960073 -1.470765,-0.960082 -0.658216,9e-6 -1.141662,0.317766 -1.450338,0.953273 -0.304142,0.630984 -0.456212,1.665964 -0.456209,3.104944 -3e-6,1.44354 0.152067,2.48306 0.456209,3.11857 0.308676,0.63552 0.792122,0.95328 1.450338,0.95327"
         id="path3050"
         style="font-variant:normal;font-stretch:normal;font-family:Droid Sans Mono;-inkscape-font-specification:Droid Sans Mono" />
    </g>
  </g>
  <g
     id="layer4">
    <g
       transform="scale(1.3546944,0.73817387)"
       id="text2985-04"
       style="font-size:29.82770729px;font-style:normal;font-weight:normal;line-height:125%;letter-spacing:0px;word-spacing:0px;fill:#000000;fill-opacity:1;stroke:none;font-family:Sans">
      <path
         d="m 77.811338,118.12566 c -2.223492,0 -3.908095,-0.93697 -5.053816,-2.81091 -1.145729,-1.88365 -1.718591,-4.60232 -1.718589,-8.15602 -2e-6,-7.301552 2.257464,-10.952336 6.772405,-10.952357 2.252602,2.1e-5 3.95177,0.941846 5.097508,2.825476 1.15542,1.873961 1.733137,4.582921 1.733153,8.126881 -1.6e-5,7.31129 -2.276901,10.96693 -6.830661,10.96693 m 0,-2.25747 c 1.427292,0 2.475921,-0.67966 3.145891,-2.039 0.669945,-1.36904 1.004924,-3.59252 1.004937,-6.67046 -1.3e-5,-3.05849 -0.334992,-5.26741 -1.004937,-6.62676 -0.66997,-1.369024 -1.718599,-2.053545 -3.145891,-2.053565 -1.407891,2e-5 -2.441956,0.679687 -3.102198,2.039005 -0.650545,1.34964 -0.975814,3.56341 -0.975809,6.64132 -5e-6,3.08765 0.325264,5.31113 0.975809,6.67046 0.660242,1.35934 1.694307,2.039 3.102198,2.039"
         id="path3053"
         style="font-variant:normal;font-stretch:normal;font-family:Droid Sans Mono;-inkscape-font-specification:Droid Sans Mono" />
    </g>
  </g>
</svg>
